<?xml version="1.0" ?><svg viewBox="0 0 512 371.43" xmlns="http://www.w3.org/2000/svg"><defs><style>.cls-1{fill:none;stroke:#000;stroke-linecap:round;stroke-linejoin:round;stroke-width:20px;}</style></defs><g data-name="Layer 2" id="Layer_2"><g data-name="E417, Media, media player, multimedia, player, video player" id="E417_Media_media_player_multimedia_player_video_player"><rect class="cls-1" height="351.43" width="492" x="10" y="10"/><polygon class="cls-1" points="191.83 271.28 191.83 100.15 352.26 185.71 191.83 271.28"/><rect class="cls-1" height="45.4" width="82" x="10" y="10"/><rect class="cls-1" height="45.4" width="82" x="92" y="10"/><rect class="cls-1" height="45.4" width="82" x="174" y="10"/><rect class="cls-1" height="45.4" width="82" x="256" y="10"/><rect class="cls-1" height="45.4" width="82" x="338" y="10"/><rect class="cls-1" height="45.4" width="82" x="420" y="10"/><rect class="cls-1" height="45.4" width="82" x="10" y="316.03"/><rect class="cls-1" height="45.4" width="82" x="92" y="316.03"/><rect class="cls-1" height="45.4" width="82" x="174" y="316.03"/><rect class="cls-1" height="45.4" width="82" x="256" y="316.03"/><rect class="cls-1" height="45.4" width="82" x="338" y="316.03"/><rect class="cls-1" height="45.4" width="82" x="420" y="316.03"/></g></g></svg>