<svg width="22" height="14" viewBox="0 0 22 14" fill="none" xmlns="http://www.w3.org/2000/svg">
<path fill-rule="evenodd" clip-rule="evenodd" d="M12.1885 13.0037C11.8787 13.3215 11.4585 13.5 11.0203 13.5C10.5821 13.5 10.1619 13.3215 9.85206 13.0037L0.504457 3.4144C0.346637 3.25803 0.220753 3.07098 0.134153 2.86417C0.0475524 2.65736 0.00196895 2.43493 6.23885e-05 2.20985C-0.00184417 1.98477 0.0399647 1.76156 0.123049 1.55324C0.206133 1.34491 0.328828 1.15565 0.483976 0.996489C0.639124 0.837329 0.823617 0.711461 1.02669 0.626229C1.22976 0.540997 1.44735 0.498108 1.66675 0.500064C1.88616 0.50202 2.10299 0.548782 2.30458 0.637621C2.50618 0.726461 2.68852 0.855598 2.84095 1.0175L11.0203 9.40834L19.1997 1.0175C19.5113 0.70872 19.9287 0.537861 20.362 0.541724C20.7952 0.545586 21.2097 0.723859 21.516 1.03815C21.8224 1.35244 21.9962 1.7776 21.9999 2.22205C22.0037 2.6665 21.8372 3.0947 21.5362 3.4144L12.1885 13.0037Z" fill="white"/>
</svg>
